# xmcd
#
# Track frame offsets: 
#        150
#        50787
#        98342
#        131466
#        161748
#        220591
#        253759
#
# Disc length: 3771 seconds
#
# Revision: 4
# Processed by: cddbd v1.5.2PL0 Copyright (c) Steve Scherf et al.
# Submitted via: ExactAudioCopyFreeDBPlugin 1.0
#
DISCID=5a0eb907
DTITLE=Forgotten Woods - Sjel Av Natten
DYEAR=1995
DGENRE=Black Metal
TTITLE0=Sjel Av Natten
TTITLE1=En Natt Med Storm Og Ravners Skrik
TTITLE2=Hvor Vinteren Rår
TTITLE3=Jomfrulysets Fall
TTITLE4=Inherent Emptiness
TTITLE5=Your Crystal Fragments
TTITLE6=Blå Melankoli
EXTD=
EXTT0=
EXTT1=
EXTT2=
EXTT3=
EXTT4=
EXTT5=
EXTT6=
PLAYORDER=
